<?xml version="1.0" encoding="utf-8"?>
<!-- Generator: Adobe Illustrator 19.1.1, SVG Export Plug-In . SVG Version: 6.00 Build 0)  -->
<svg version="1.1" id="Layer_1" xmlns="http://www.w3.org/2000/svg" xmlns:xlink="http://www.w3.org/1999/xlink" x="0px" y="0px"
	 viewBox="0 0 237 243" style="enable-background:new 0 0 237 243;" xml:space="preserve">
<style type="text/css">
	.st0{fill:#CE8AAC;}
	.st1{fill:#5BABC6;}
	.st2{fill:#CC3F5D;}
	.st3{fill:#221F1F;}
	.st4{fill:none;stroke:#000000;stroke-width:2;stroke-miterlimit:10;}
	.st5{fill:#221F1F;stroke:#000000;stroke-width:2;stroke-miterlimit:10;}
	.st6{fill:none;stroke:#CC3F5D;stroke-width:2;stroke-miterlimit:10;}
	.st7{fill:#CC3F5D;stroke:#CC3F5D;stroke-width:2;stroke-miterlimit:10;}
	.st8{fill:none;stroke:#FFFFFF;stroke-width:2;stroke-miterlimit:10;}
	.st9{fill:#FFFFFF;stroke:#FFFFFF;stroke-width:2;stroke-miterlimit:10;}
	.st10{fill:#FFFFFF;}
	.st11{fill:none;stroke:#5BABC6;stroke-width:2;stroke-miterlimit:10;}
	.st12{fill:#5BABC6;stroke:#5BABC6;stroke-width:2;stroke-miterlimit:10;}
	.st13{fill:none;stroke:#CE8AAC;stroke-width:2;stroke-miterlimit:10;}
	.st14{fill:#CE8AAC;stroke:#CE8AAC;stroke-width:2;stroke-miterlimit:10;}
	.st15{fill:none;stroke:#28AD89;stroke-width:2;stroke-miterlimit:10;}
	.st16{fill:#28AD89;stroke:#28AD89;stroke-width:2;stroke-miterlimit:10;}
	.st17{fill:#28AD89;}
</style>
<path class="st8" d="M118.2,54.6c0,0-21.8-70.1-108.1-35v142.3c86.2-35,108.1,35,108.1,35"/>
<path class="st8" d="M118.2,54.6c0,0,21.8-70.1,108.1-35v142.3c-86.2-35-108.1,35-108.1,35"/>
<path class="st9" d="M118.2,54.6c0,0-8.9-29.1-41.2-41.8h83.9C160.8,12.8,127.8,23.5,118.2,54.6v142.3"/>
<g>
	<path class="st10" d="M135.8,210.9c1.1,0,2.1,0.2,3,0.5c0.9,0.3,1.7,0.8,2.3,1.5c0.7,0.7,1.2,1.5,1.5,2.4c0.4,1,0.5,2,0.5,3.3
		c0,0.3,0,0.6,0,0.8c0,0.2-0.1,0.4-0.1,0.5c-0.1,0.1-0.2,0.2-0.3,0.2c-0.1,0-0.3,0.1-0.5,0.1h-10.5c0.1,1.7,0.6,3,1.4,3.8
		c0.8,0.8,1.9,1.2,3.2,1.2c0.7,0,1.2-0.1,1.7-0.2c0.5-0.2,0.9-0.3,1.3-0.5c0.4-0.2,0.7-0.4,0.9-0.5c0.3-0.2,0.5-0.2,0.8-0.2
		c0.2,0,0.3,0,0.4,0.1c0.1,0.1,0.2,0.2,0.3,0.3l1.2,1.5c-0.5,0.5-1,1-1.5,1.3c-0.6,0.4-1.2,0.6-1.8,0.9s-1.2,0.4-1.9,0.5
		c-0.6,0.1-1.3,0.1-1.8,0.1c-1.2,0-2.3-0.2-3.3-0.6c-1-0.4-1.9-1-2.7-1.7s-1.3-1.7-1.8-2.9c-0.4-1.1-0.6-2.4-0.6-3.9
		c0-1.2,0.2-2.3,0.6-3.3c0.4-1,0.9-1.9,1.6-2.7c0.7-0.8,1.6-1.4,2.6-1.8C133.4,211.1,134.5,210.9,135.8,210.9z M135.9,213.8
		c-1.2,0-2.1,0.3-2.8,1c-0.7,0.7-1.1,1.6-1.3,2.9h7.7c0-0.5-0.1-1-0.2-1.5c-0.1-0.5-0.4-0.9-0.7-1.2c-0.3-0.4-0.7-0.6-1.1-0.8
		S136.5,213.8,135.9,213.8z"/>
	<path class="st10" d="M156.6,214.5c-0.1,0.2-0.2,0.3-0.3,0.4c-0.1,0.1-0.3,0.1-0.5,0.1c-0.2,0-0.4-0.1-0.6-0.2
		c-0.2-0.1-0.5-0.2-0.8-0.4s-0.6-0.3-1-0.4s-0.8-0.2-1.4-0.2c-0.8,0-1.4,0.2-1.9,0.5c-0.5,0.3-0.7,0.8-0.7,1.3
		c0,0.4,0.1,0.7,0.4,0.9c0.2,0.2,0.6,0.5,0.9,0.7c0.4,0.2,0.8,0.4,1.3,0.5c0.5,0.1,1,0.3,1.5,0.5c0.5,0.2,1,0.4,1.5,0.6
		c0.5,0.2,0.9,0.5,1.3,0.9c0.4,0.3,0.7,0.8,0.9,1.3c0.2,0.5,0.4,1.1,0.4,1.8c0,0.8-0.1,1.6-0.4,2.3c-0.3,0.7-0.7,1.3-1.3,1.8
		c-0.6,0.5-1.3,0.9-2.1,1.2c-0.8,0.3-1.8,0.4-2.9,0.4c-0.6,0-1.2-0.1-1.7-0.2c-0.6-0.1-1.1-0.3-1.6-0.4c-0.5-0.2-1-0.4-1.4-0.7
		c-0.4-0.3-0.8-0.5-1.2-0.8l0.9-1.6c0.1-0.2,0.3-0.3,0.4-0.4c0.2-0.1,0.4-0.1,0.6-0.1c0.3,0,0.5,0.1,0.7,0.2s0.5,0.3,0.8,0.5
		c0.3,0.2,0.6,0.3,1.1,0.5s0.9,0.2,1.5,0.2c0.5,0,0.9-0.1,1.3-0.2c0.3-0.1,0.6-0.3,0.9-0.5c0.2-0.2,0.4-0.4,0.5-0.7
		c0.1-0.2,0.2-0.5,0.2-0.8c0-0.4-0.1-0.7-0.4-1c-0.2-0.3-0.6-0.5-0.9-0.7c-0.4-0.2-0.8-0.4-1.3-0.5c-0.5-0.1-1-0.3-1.5-0.5
		s-1-0.4-1.5-0.6c-0.5-0.2-1-0.5-1.3-0.9c-0.4-0.4-0.7-0.8-0.9-1.3c-0.2-0.5-0.4-1.2-0.4-1.9c0-0.7,0.1-1.4,0.4-2
		c0.3-0.6,0.7-1.2,1.2-1.6c0.5-0.5,1.2-0.8,2-1.1c0.8-0.3,1.7-0.4,2.8-0.4c1.2,0,2.2,0.2,3.2,0.6c1,0.4,1.8,0.9,2.4,1.5L156.6,214.5
		z"/>
	<path class="st10" d="M165.1,203.5v14.1h0.8c0.3,0,0.5,0,0.6-0.1s0.3-0.2,0.5-0.4l4.2-5.2c0.2-0.2,0.4-0.4,0.6-0.5s0.5-0.2,0.8-0.2
		h3.7l-5.3,6.3c-0.2,0.2-0.4,0.4-0.6,0.6c-0.2,0.2-0.4,0.4-0.6,0.5c0.2,0.2,0.4,0.4,0.6,0.6c0.2,0.2,0.4,0.5,0.5,0.7l5.7,8.3H173
		c-0.3,0-0.6-0.1-0.8-0.2s-0.4-0.3-0.6-0.6l-4.3-6.4c-0.2-0.3-0.3-0.4-0.5-0.5c-0.2-0.1-0.4-0.1-0.7-0.1h-0.9v7.8H161v-24.6H165.1z"
		/>
	<path class="st10" d="M185.5,210.9c1.3,0,2.4,0.2,3.5,0.6c1,0.4,1.9,1,2.6,1.7c0.7,0.8,1.3,1.7,1.7,2.8s0.6,2.3,0.6,3.6
		c0,1.3-0.2,2.6-0.6,3.6s-1,2-1.7,2.8c-0.7,0.8-1.6,1.3-2.6,1.8s-2.2,0.6-3.5,0.6c-1.3,0-2.4-0.2-3.5-0.6c-1-0.4-1.9-1-2.7-1.8
		c-0.7-0.8-1.3-1.7-1.7-2.8c-0.4-1.1-0.6-2.3-0.6-3.6c0-1.3,0.2-2.5,0.6-3.6c0.4-1.1,1-2,1.7-2.8c0.7-0.8,1.6-1.3,2.7-1.7
		C183.1,211.1,184.3,210.9,185.5,210.9z M185.5,225.2c1.4,0,2.5-0.5,3.1-1.4s1-2.3,1-4.2c0-1.8-0.3-3.2-1-4.2s-1.7-1.4-3.1-1.4
		c-1.4,0-2.5,0.5-3.2,1.5c-0.7,1-1,2.4-1,4.2s0.3,3.2,1,4.2C183,224.8,184.1,225.2,185.5,225.2z"/>
	<path class="st10" d="M201.5,203.5v24.6h-4.1v-24.6H201.5z"/>
	<path class="st10" d="M217.4,228.1h-1.8c-0.4,0-0.7-0.1-0.9-0.2c-0.2-0.1-0.4-0.4-0.5-0.7l-0.4-1.2c-0.4,0.4-0.9,0.7-1.3,1
		c-0.4,0.3-0.8,0.5-1.3,0.7s-0.9,0.3-1.4,0.4c-0.5,0.1-1.1,0.1-1.7,0.1c-0.7,0-1.4-0.1-2-0.3s-1.1-0.5-1.6-0.9
		c-0.4-0.4-0.8-0.9-1-1.4c-0.2-0.6-0.4-1.2-0.4-2c0-0.6,0.2-1.3,0.5-1.9c0.3-0.6,0.9-1.2,1.7-1.7c0.8-0.5,1.8-0.9,3.1-1.3
		c1.3-0.3,2.9-0.5,4.9-0.5v-1c0-1.1-0.2-2-0.7-2.5c-0.5-0.6-1.2-0.8-2.1-0.8c-0.7,0-1.2,0.1-1.7,0.2c-0.4,0.2-0.8,0.3-1.2,0.5
		c-0.3,0.2-0.6,0.4-0.9,0.5s-0.6,0.2-0.9,0.2c-0.3,0-0.5-0.1-0.7-0.2c-0.2-0.1-0.4-0.3-0.5-0.5l-0.7-1.3c2-1.8,4.3-2.7,7.1-2.7
		c1,0,1.9,0.2,2.7,0.5c0.8,0.3,1.4,0.8,2,1.4c0.5,0.6,1,1.3,1.2,2.1s0.4,1.7,0.4,2.7V228.1z M209.5,225.6c0.4,0,0.8,0,1.2-0.1
		s0.7-0.2,1-0.3c0.3-0.2,0.6-0.3,0.9-0.6s0.6-0.5,0.9-0.8v-2.8c-1.2,0-2.2,0.1-3,0.2c-0.8,0.2-1.4,0.3-1.9,0.6
		c-0.5,0.2-0.8,0.5-1,0.8s-0.3,0.7-0.3,1c0,0.7,0.2,1.2,0.6,1.6S208.8,225.6,209.5,225.6z"/>
</g>
<g>
	<path class="st10" d="M22.3,233.2v-22.6h2.5c0.3,0,0.5,0.1,0.7,0.2c0.2,0.1,0.3,0.3,0.4,0.6l0.3,1.6c0.7-0.8,1.5-1.4,2.4-1.9
		s1.9-0.7,3.1-0.7c0.9,0,1.8,0.2,2.5,0.6c0.8,0.4,1.4,0.9,2,1.7c0.6,0.7,1,1.6,1.3,2.7c0.3,1.1,0.5,2.3,0.5,3.7
		c0,1.3-0.2,2.4-0.5,3.5c-0.3,1.1-0.8,2-1.5,2.8c-0.6,0.8-1.4,1.4-2.3,1.9c-0.9,0.4-1.9,0.7-3,0.7c-1,0-1.8-0.1-2.4-0.4
		c-0.7-0.3-1.3-0.7-1.8-1.2v7H22.3z M30.3,213.5c-0.9,0-1.6,0.2-2.2,0.5c-0.6,0.4-1.2,0.9-1.7,1.5v7.6c0.5,0.6,1,1,1.5,1.2
		c0.5,0.2,1.1,0.3,1.8,0.3c0.6,0,1.2-0.1,1.7-0.3s0.9-0.6,1.3-1.1s0.6-1.1,0.8-1.8c0.2-0.7,0.3-1.6,0.3-2.6c0-1-0.1-1.8-0.2-2.5
		c-0.2-0.7-0.4-1.3-0.7-1.7s-0.7-0.7-1.1-0.9S30.8,213.5,30.3,213.5z"/>
	<path class="st10" d="M47.8,210.3c1.3,0,2.4,0.2,3.5,0.6c1,0.4,1.9,1,2.6,1.7c0.7,0.8,1.3,1.7,1.7,2.8s0.6,2.3,0.6,3.6
		c0,1.3-0.2,2.6-0.6,3.6s-1,2-1.7,2.8c-0.7,0.8-1.6,1.3-2.6,1.8s-2.2,0.6-3.5,0.6c-1.3,0-2.4-0.2-3.5-0.6c-1-0.4-1.9-1-2.7-1.8
		c-0.7-0.8-1.3-1.7-1.7-2.8c-0.4-1.1-0.6-2.3-0.6-3.6c0-1.3,0.2-2.5,0.6-3.6c0.4-1.1,1-2,1.7-2.8c0.7-0.8,1.6-1.3,2.7-1.7
		C45.3,210.5,46.5,210.3,47.8,210.3z M47.8,224.7c1.4,0,2.5-0.5,3.1-1.4s1-2.3,1-4.2c0-1.8-0.3-3.2-1-4.2s-1.7-1.4-3.1-1.4
		c-1.4,0-2.5,0.5-3.2,1.5c-0.7,1-1,2.4-1,4.2s0.3,3.2,1,4.2C45.3,224.2,46.3,224.7,47.8,224.7z"/>
	<path class="st10" d="M59.8,227.6v-17h2.4c0.4,0,0.7,0.1,0.9,0.2c0.2,0.2,0.3,0.4,0.3,0.8l0.2,2.1c0.6-1,1.3-1.9,2.1-2.5
		c0.8-0.6,1.7-0.9,2.8-0.9c0.8,0,1.5,0.2,2.1,0.6l-0.5,3.1c0,0.2-0.1,0.3-0.2,0.4c-0.1,0.1-0.3,0.1-0.4,0.1c-0.2,0-0.4,0-0.7-0.1
		c-0.3-0.1-0.7-0.1-1.1-0.1c-0.9,0-1.6,0.2-2.2,0.7c-0.6,0.5-1.1,1.2-1.5,2.1v10.6H59.8z"/>
	<path class="st10" d="M73,227.6v-17h2.5c0.5,0,0.9,0.2,1,0.7l0.3,1.3c0.3-0.4,0.7-0.7,1.1-1c0.4-0.3,0.8-0.5,1.2-0.7
		c0.4-0.2,0.9-0.4,1.4-0.5c0.5-0.1,1-0.2,1.6-0.2c0.9,0,1.8,0.2,2.5,0.5s1.3,0.8,1.8,1.3c0.5,0.6,0.8,1.2,1.1,2s0.4,1.7,0.4,2.6
		v10.8h-4.1v-10.8c0-1-0.2-1.8-0.7-2.4c-0.5-0.6-1.2-0.9-2.2-0.9c-0.7,0-1.4,0.2-2,0.5c-0.6,0.3-1.2,0.8-1.8,1.3v12.3H73z"/>
	<path class="st10" d="M99.8,210.3c1.3,0,2.4,0.2,3.5,0.6c1,0.4,1.9,1,2.6,1.7c0.7,0.8,1.3,1.7,1.7,2.8s0.6,2.3,0.6,3.6
		c0,1.3-0.2,2.6-0.6,3.6s-1,2-1.7,2.8c-0.7,0.8-1.6,1.3-2.6,1.8s-2.2,0.6-3.5,0.6c-1.3,0-2.4-0.2-3.5-0.6c-1-0.4-1.9-1-2.7-1.8
		c-0.7-0.8-1.3-1.7-1.7-2.8c-0.4-1.1-0.6-2.3-0.6-3.6c0-1.3,0.2-2.5,0.6-3.6c0.4-1.1,1-2,1.7-2.8c0.7-0.8,1.6-1.3,2.7-1.7
		C97.4,210.5,98.6,210.3,99.8,210.3z M99.8,224.7c1.4,0,2.5-0.5,3.1-1.4s1-2.3,1-4.2c0-1.8-0.3-3.2-1-4.2s-1.7-1.4-3.1-1.4
		c-1.4,0-2.5,0.5-3.2,1.5c-0.7,1-1,2.4-1,4.2s0.3,3.2,1,4.2C97.3,224.2,98.4,224.7,99.8,224.7z"/>
</g>
</svg>
